<?xml version="1.0" encoding="UTF-8" standalone="no"?>
<svg xmlns:dc="http://purl.org/dc/elements/1.1/" xmlns:cc="http://creativecommons.org/ns#" xmlns:rdf="http://www.w3.org/1999/02/22-rdf-syntax-ns#" xmlns:svg="http://www.w3.org/2000/svg" xmlns="http://www.w3.org/2000/svg" viewBox="0 0 225.28934 171.29066" height="171.29066" width="225.28934" xml:space="preserve" id="svg2" version="1.1"><metadata id="metadata8"><rdf:RDF><cc:Work rdf:about=""><dc:format>image/svg+xml</dc:format><dc:type rdf:resource="http://purl.org/dc/dcmitype/StillImage"/></cc:Work></rdf:RDF></metadata><defs id="defs6"><clipPath id="clipPath18" clipPathUnits="userSpaceOnUse"><path id="path16" d="M 0,128.468 H 168.967 V 0 H 0 Z"/></clipPath></defs><g transform="matrix(1.3333333,0,0,-1.3333333,0,171.29067)" id="g10"><g id="g12"><g clip-path="url(#clipPath18)" id="g14"><g transform="translate(105.9189,64.167)" id="g20"><path id="path22" style="fill:#00a768;fill-opacity:1;fill-rule:nonzero;stroke:none" d="m 0,0 c -2.172,0 -3.932,1.758 -3.932,3.93 0,2.172 1.76,3.933 3.932,3.933 2.172,0 3.932,-1.761 3.932,-3.933 C 3.932,1.758 2.172,0 0,0 m -9.219,0 c -2.171,0 -3.932,1.758 -3.932,3.93 0,2.172 1.761,3.933 3.932,3.933 2.172,0 3.933,-1.761 3.933,-3.933 C -5.286,1.758 -7.047,0 -9.219,0 m -9.223,0 c -2.171,0 -3.931,1.758 -3.931,3.93 0,2.172 1.76,3.933 3.931,3.933 2.172,0 3.933,-1.761 3.933,-3.933 0,-2.172 -1.761,-3.93 -3.933,-3.93 m 0.642,48.389 v -32.442 -0.02 l -0.005,-0.003 c -0.013,-1.408 -1.157,-2.541 -2.567,-2.541 h -3.872 c -0.193,-10e-4 -0.348,-0.156 -0.348,-0.35 v -27.201 c 0.959,-0.086 1.927,-0.135 2.907,-0.135 17.379,0 31.465,14.088 31.465,31.466 0,16.061 -12.035,29.311 -27.58,31.226"/></g><g transform="translate(78.2036,86.8486)" id="g24"><path id="path26" style="fill:#00a768;fill-opacity:1;fill-rule:nonzero;stroke:none" d="m 0,0 c -2.171,0 -3.932,1.76 -3.932,3.932 0,2.171 1.761,3.932 3.932,3.932 2.171,0 3.932,-1.761 3.932,-3.932 C 3.932,1.76 2.171,0 0,0 m 6.031,25.945 c -17.376,0 -31.464,-14.088 -31.464,-31.463 0,-15.082 10.612,-27.686 24.777,-30.753 v 28.235 l 0.002,0.003 c 0.028,1.361 1.114,2.46 2.468,2.511 l 0.003,0.002 h 3.968 c 0.186,0 0.338,0.147 0.349,0.33 l 0.002,31.129 z"/></g><g transform="translate(149.3608,31.3477)" id="g28"><path id="path30" style="fill:#00a768;fill-opacity:1;fill-rule:nonzero;stroke:none" d="M 0,0 V -5.935 H -7.968 V 0 H -11.9 v -15.674 h 3.932 v 6.336 H 0 v -6.336 H 3.932 V 0 Z"/></g><g transform="translate(77.9707,22.1201)" id="g32"><path id="path34" style="fill:#00a768;fill-opacity:1;fill-rule:nonzero;stroke:none" d="M 0,0 2.42,5.693 C 2.494,5.869 2.636,5.916 2.739,5.916 H 2.74 2.741 c 0.106,0 0.244,-0.047 0.32,-0.223 L 5.48,0 Z M 5.968,7.482 C 5.31,8.905 4.002,9.602 2.741,9.602 H 2.739 c -1.26,0 -2.57,-0.697 -3.225,-2.12 L -6.911,-6.446 h 4.179 l 1.4,3.308 h 8.144 l 1.401,-3.308 h 4.179 z"/></g><g transform="translate(37.1899,34.1885)" id="g36"><path id="path38" style="fill:#00a768;fill-opacity:1;fill-rule:nonzero;stroke:none" d="m 0,0 c -1.84,0 -3.014,-0.98 -3.885,-2.954 l -5.124,-11.797 -5.122,11.797 C -15.001,-0.98 -16.177,0 -18.016,0 c -1.721,0 -3.5,-1.233 -3.5,-3.91 v -14.605 h 3.924 V -4.31 l 5.155,-11.698 c 0.692,-1.632 1.806,-2.658 3.428,-2.66 h 0.002 c 1.621,0.002 2.735,1.028 3.427,2.66 L -0.424,-4.31 V -18.515 H 3.5 V -3.91 C 3.5,-1.233 1.721,0 0,0"/></g><g transform="translate(47.5698,18.9854)" id="g40"><path id="path42" style="fill:#00a768;fill-opacity:1;fill-rule:nonzero;stroke:none" d="m 0,0 c -0.189,0 -0.336,0.156 -0.336,0.338 v 2.797 h 9.793 v 3.196 h -9.793 v 2.384 c 0,0.181 0.147,0.336 0.336,0.336 h 9.687 v 3.311 H -1.932 c -1.361,0 -2.338,-1.134 -2.338,-2.335 V -0.976 c 0,-1.2 0.977,-2.336 2.338,-2.336 H 9.687 V 0 Z"/></g><g transform="translate(63.9214,15.6738)" id="g44"><path id="path46" style="fill:#00a768;fill-opacity:1;fill-rule:nonzero;stroke:none" d="m 0,0 v 12.026 c 0,0.182 0.149,0.336 0.337,0.336 h 9.688 v 3.312 H -1.594 c -1.361,0 -2.339,-1.135 -2.339,-2.335 L -3.933,0 Z"/></g><g transform="translate(126.4922,18.7647)" id="g48"><path id="path50" style="fill:#00a768;fill-opacity:1;fill-rule:nonzero;stroke:none" d="m 0,0 h -1.256 c -3.278,0 -4.543,1.477 -4.543,4.759 v 0.015 c 0,3.183 1.112,4.748 4.543,4.748 H 0 c 3.333,0 4.541,-1.565 4.541,-4.748 L 4.542,4.759 C 4.542,1.477 3.252,0 0,0 m 8.369,4.774 c -0.002,5.488 -2.361,8.049 -8.31,8.049 h -1.375 c -5.95,0 -8.307,-2.561 -8.31,-8.049 V 4.766 c 0,-5.405 2.409,-8.01 8.344,-8.01 h 1.306 c 5.934,0 8.345,2.605 8.345,8.01 z"/></g><g transform="translate(109.9809,23.5391)" id="g52"><path id="path54" style="fill:#00a768;fill-opacity:1;fill-rule:nonzero;stroke:none" d="m 0,0 c -0.586,-1.557 -1.543,-2.548 -4.203,-2.548 h -1.799 v 9.521 h 2.417 C -1.32,6.973 0.224,5.559 0.224,2.215 0.224,1.352 0.226,0.597 0,0 m -9.921,-2.548 h -1.801 c -2.659,0 -3.616,0.991 -4.201,2.548 -0.227,0.597 -0.225,1.352 -0.225,2.215 0,3.344 1.545,4.758 3.81,4.758 h 2.417 z m 5.848,12.826 h -3.888 -3.891 c -5.804,0 -8.126,-2.936 -8.126,-8.056 0,-0.801 0.048,-1.541 0.164,-2.222 0.613,-3.628 2.745,-5.856 8.182,-5.856 h 1.711 v -2.009 h 3.919 v 2.009 h 1.711 c 5.435,0 7.567,2.228 8.181,5.856 0.115,0.681 0.163,1.421 0.163,2.222 0,5.12 -2.321,8.056 -8.126,8.056"/></g></g></g></g></svg>