<svg xmlns="http://www.w3.org/2000/svg" viewBox="0 0 61 22" xmlns:xlink="http://www.w3.org/1999/xlink"><defs><path id="a" d="M40.25 21.97H0V.27h40.25v21.7z"/></defs><g fill="none" fill-rule="evenodd"><mask id="b" fill="#fff"><use xlink:href="#a"/></mask><path fill="#e81e23" d="M34.8 15.47l1.74-4.17h.2l.35 5.26h3.1L39.5 5.7h-3.05l-2.63 6.16h-.2l-2.7-6.16h-3l-.73 10.86h3.1l.3-5.26h.16l1.96 4.17h2.07m-23.9 3.7c4.06 0 5.9-3.22 5.9-6.43 0-4.52-3.16-9.68-5.9-9.68-2.76 0-5.9 5.16-5.9 9.68 0 3.2 1.82 6.44 5.9 6.44m10.86.65c0 1.2-.97 2.17-2.17 2.17H2.16C.97 22 0 21.02 0 19.82V2.42C0 1.22.98.25 2.18.25h17.4c1.2 0 2.17.97 2.17 2.17v17.4" mask="url(#b)"/><path fill="#e81e23" d="M60.42 13.83s-1.3.17-2.78.17c-1.83 0-2.18-.6-2.18-2.02v-1.74c0-1.47.3-2.04 2.18-2.04 1.33 0 2.63.2 2.63.2l.2-2.68s-1.66-.22-3.1-.22c-3.78 0-5.16 1.25-5.16 4.3v2.63c0 3.36 1.7 4.3 5.2 4.3 1.4 0 3.28-.23 3.28-.23l-.2-2.67M41.5 8.43h3.13v8.13h3.27V8.44H51l.2-2.76h-9.93l.2 2.76"/><path fill="#FFF" d="M16.76 12.72c0-4.52-3.14-9.67-5.88-9.67-2.75 0-5.9 5.15-5.9 9.67 0 3.2 1.83 6.45 5.9 6.45s5.88-3.24 5.88-6.45"/></g></svg>